<?xml version="1.0" encoding="UTF-8"?>
<svg width="436px" height="409px" viewBox="0 0 436 409" version="1.1" xmlns="http://www.w3.org/2000/svg" xmlns:xlink="http://www.w3.org/1999/xlink">
    <title>pattern-2</title>
    <g id="Page-1" stroke="none" stroke-width="1" fill="none" fill-rule="evenodd">
        <g id="pattern-2" transform="translate(1.000000, 1.000000)" stroke="#000000">
            <path d="M-1.36279876e-14,5.36755556 C-1.36279876e-14,5.36755556 106.587,-6.70944444 215.422,5.36755556 C324.256,17.4445556 434.351,5.36755556 434.351,5.36755556" id="Stroke-1" stroke-width="0.5"></path>
            <path d="M-1.36279876e-14,7.97105556 C-1.36279876e-14,7.97105556 106.6,-4.15194444 215.488,7.97105556 C324.375,20.0950556 434.351,7.97105556 434.351,7.97105556" id="Stroke-3" stroke-width="0.51"></path>
            <path d="M-1.36279876e-14,10.5745556 C-1.36279876e-14,10.5745556 106.613,-1.59444444 215.554,10.5745556 C324.495,22.7445556 434.351,10.5745556 434.351,10.5745556" id="Stroke-5" stroke-width="0.52"></path>
            <path d="M-1.36279876e-14,13.1780556 C-1.36279876e-14,13.1780556 106.626,0.962055556 215.62,13.1780556 C324.614,25.3940556 434.351,13.1780556 434.351,13.1780556" id="Stroke-7" stroke-width="0.53"></path>
            <path d="M-1.36279876e-14,15.7816556 C-1.36279876e-14,15.7816556 106.639,3.51965556 215.687,15.7816556 C324.734,28.0436556 434.351,15.7816556 434.351,15.7816556" id="Stroke-9" stroke-width="0.54"></path>
            <path d="M-1.36279876e-14,18.3851556 C-1.36279876e-14,18.3851556 106.652,6.07715556 215.753,18.3851556 C324.853,30.6931556 434.351,18.3851556 434.351,18.3851556" id="Stroke-11" stroke-width="0.55"></path>
            <path d="M-1.36279876e-14,20.9886556 C-1.36279876e-14,20.9886556 106.666,8.63465556 215.819,20.9886556 C324.973,33.3426556 434.351,20.9886556 434.351,20.9886556" id="Stroke-13" stroke-width="0.56"></path>
            <path d="M-1.36279876e-14,23.5921556 C-1.36279876e-14,23.5921556 106.678,11.1931556 215.885,23.5921556 C325.092,35.9911556 434.351,23.5921556 434.351,23.5921556" id="Stroke-15" stroke-width="0.57"></path>
            <path d="M-1.36279876e-14,26.1956556 C-1.36279876e-14,26.1956556 106.691,13.7506556 215.951,26.1956556 C325.211,38.6406556 434.351,26.1956556 434.351,26.1956556" id="Stroke-17" stroke-width="0.579"></path>
            <path d="M-1.36279876e-14,28.7991556 C-1.36279876e-14,28.7991556 106.705,16.3081556 216.018,28.7991556 C325.331,41.2901556 434.351,28.7991556 434.351,28.7991556" id="Stroke-19" stroke-width="0.589"></path>
            <path d="M-1.36279876e-14,31.4026556 C-1.36279876e-14,31.4026556 106.717,18.8656556 216.083,31.4026556 C325.45,43.9396556 434.351,31.4026556 434.351,31.4026556" id="Stroke-21" stroke-width="0.599"></path>
            <path d="M-1.36279876e-14,34.0062556 C-1.36279876e-14,34.0062556 106.73,21.4232556 216.15,34.0062556 C325.569,46.5892556 434.351,34.0062556 434.351,34.0062556" id="Stroke-23" stroke-width="0.609"></path>
            <path d="M-1.36279876e-14,36.6097556 C-1.36279876e-14,36.6097556 106.744,23.9807556 216.216,36.6097556 C325.688,49.2387556 434.351,36.6097556 434.351,36.6097556" id="Stroke-25" stroke-width="0.619"></path>
            <path d="M-1.36279876e-14,39.2132556 C-1.36279876e-14,39.2132556 106.756,26.5382556 216.282,39.2132556 C325.808,51.8882556 434.351,39.2132556 434.351,39.2132556" id="Stroke-27" stroke-width="0.629"></path>
            <path d="M-1.36279876e-14,41.8167556 C-1.36279876e-14,41.8167556 106.77,29.0957556 216.349,41.8167556 C325.927,54.5377556 434.351,41.8167556 434.351,41.8167556" id="Stroke-29" stroke-width="0.639"></path>
            <path d="M-1.36279876e-14,44.4202556 C-1.36279876e-14,44.4202556 106.783,31.6532556 216.415,44.4202556 C326.047,57.1872556 434.351,44.4202556 434.351,44.4202556" id="Stroke-31" stroke-width="0.649"></path>
            <path d="M-1.36279876e-14,47.0237556 C-1.36279876e-14,47.0237556 106.795,34.2107556 216.481,47.0237556 C326.166,59.8367556 434.351,47.0237556 434.351,47.0237556" id="Stroke-33" stroke-width="0.659"></path>
            <path d="M-1.36279876e-14,49.6273556 C-1.36279876e-14,49.6273556 106.809,36.7693556 216.547,49.6273556 C326.286,62.4853556 434.351,49.6273556 434.351,49.6273556" id="Stroke-35" stroke-width="0.669"></path>
            <path d="M-1.36279876e-14,52.2308556 C-1.36279876e-14,52.2308556 106.822,39.3268556 216.613,52.2308556 C326.405,65.1348556 434.351,52.2308556 434.351,52.2308556" id="Stroke-37" stroke-width="0.679"></path>
            <path d="M-1.36279876e-14,54.8343556 C-1.36279876e-14,54.8343556 106.834,41.8843556 216.679,54.8343556 C326.524,67.7843556 434.351,54.8343556 434.351,54.8343556" id="Stroke-39" stroke-width="0.689"></path>
            <path d="M-1.36279876e-14,57.4378556 C-1.36279876e-14,57.4378556 106.848,44.4418556 216.746,57.4378556 C326.644,70.4338556 434.351,57.4378556 434.351,57.4378556" id="Stroke-41" stroke-width="0.699"></path>
            <path d="M-1.36279876e-14,60.0413556 C-1.36279876e-14,60.0413556 106.861,46.9993556 216.812,60.0413556 C326.763,73.0833556 434.351,60.0413556 434.351,60.0413556" id="Stroke-43" stroke-width="0.709"></path>
            <path d="M-1.36279876e-14,62.6448556 C-1.36279876e-14,62.6448556 106.874,49.5568556 216.878,62.6448556 C326.882,75.7328556 434.351,62.6448556 434.351,62.6448556" id="Stroke-45" stroke-width="0.719"></path>
            <path d="M-1.36279876e-14,65.2483556 C-1.36279876e-14,65.2483556 106.887,52.1143556 216.944,65.2483556 C327.002,78.3823556 434.351,65.2483556 434.351,65.2483556" id="Stroke-47" stroke-width="0.728"></path>
            <path d="M-1.36279876e-14,67.8519556 C-1.36279876e-14,67.8519556 106.9,54.6719556 217.01,67.8519556 C327.121,81.0319556 434.351,67.8519556 434.351,67.8519556" id="Stroke-49" stroke-width="0.738"></path>
            <path d="M-1.36279876e-14,70.4554556 C-1.36279876e-14,70.4554556 106.913,57.2294556 217.077,70.4554556 C327.24,83.6814556 434.351,70.4554556 434.351,70.4554556" id="Stroke-51" stroke-width="0.748"></path>
            <path d="M-1.36279876e-14,73.0589556 C-1.36279876e-14,73.0589556 106.926,59.7879556 217.143,73.0589556 C327.36,86.3299556 434.351,73.0589556 434.351,73.0589556" id="Stroke-53" stroke-width="0.758"></path>
            <path d="M-1.36279876e-14,75.6624556 C-1.36279876e-14,75.6624556 106.939,62.3454556 217.209,75.6624556 C327.479,88.9794556 434.351,75.6624556 434.351,75.6624556" id="Stroke-55" stroke-width="0.768"></path>
            <path d="M-1.36279876e-14,78.2659556 C-1.36279876e-14,78.2659556 106.952,64.9029556 217.275,78.2659556 C327.599,91.6289556 434.351,78.2659556 434.351,78.2659556" id="Stroke-57" stroke-width="0.778"></path>
            <path d="M-1.36279876e-14,80.8694556 C-1.36279876e-14,80.8694556 106.965,67.4604556 217.341,80.8694556 C327.718,94.2784556 434.351,80.8694556 434.351,80.8694556" id="Stroke-59" stroke-width="0.788"></path>
            <path d="M-1.36279876e-14,83.4730556 C-1.36279876e-14,83.4730556 106.978,70.0180556 217.408,83.4730556 C327.837,96.9280556 434.351,83.4730556 434.351,83.4730556" id="Stroke-61" stroke-width="0.798"></path>
            <path d="M-1.36279876e-14,86.0765556 C-1.36279876e-14,86.0765556 106.991,72.5745556 217.474,86.0765556 C327.957,99.5775556 434.351,86.0765556 434.351,86.0765556" id="Stroke-63" stroke-width="0.808"></path>
            <path d="M-1.36279876e-14,88.6800556 C-1.36279876e-14,88.6800556 107.004,75.1320556 217.54,88.6800556 C328.076,102.227056 434.351,88.6800556 434.351,88.6800556" id="Stroke-65" stroke-width="0.818"></path>
            <path d="M-1.36279876e-14,91.2835556 C-1.36279876e-14,91.2835556 107.017,77.6895556 217.606,91.2835556 C328.195,104.876556 434.351,91.2835556 434.351,91.2835556" id="Stroke-67" stroke-width="0.828"></path>
            <path d="M-1.36279876e-14,93.8870556 C-1.36279876e-14,93.8870556 107.03,80.2470556 217.672,93.8870556 C328.315,107.526056 434.351,93.8870556 434.351,93.8870556" id="Stroke-69" stroke-width="0.838"></path>
            <path d="M-1.36279876e-14,96.4905556 C-1.36279876e-14,96.4905556 107.043,82.8045556 217.739,96.4905556 C328.434,110.175556 434.351,96.4905556 434.351,96.4905556" id="Stroke-71" stroke-width="0.848"></path>
            <path d="M-1.36279876e-14,99.0941556 C-1.36279876e-14,99.0941556 107.056,85.3631556 217.805,99.0941556 C328.554,112.824156 434.351,99.0941556 434.351,99.0941556" id="Stroke-73" stroke-width="0.858"></path>
            <path d="M-1.36279876e-14,101.697656 C-1.36279876e-14,101.697656 107.069,87.9206556 217.871,101.697656 C328.673,115.473656 434.351,101.697656 434.351,101.697656" id="Stroke-75" stroke-width="0.868"></path>
            <path d="M-1.36279876e-14,104.301156 C-1.36279876e-14,104.301156 107.082,90.4781556 217.937,104.301156 C328.792,118.123156 434.351,104.301156 434.351,104.301156" id="Stroke-77" stroke-width="0.877"></path>
            <path d="M-1.36279876e-14,106.904656 C-1.36279876e-14,106.904656 107.095,93.0356556 218.003,106.904656 C328.912,120.772656 434.351,106.904656 434.351,106.904656" id="Stroke-79" stroke-width="0.887"></path>
            <path d="M-1.36279876e-14,109.508156 C-1.36279876e-14,109.508156 107.108,95.5931556 218.069,109.508156 C329.031,123.422156 434.351,109.508156 434.351,109.508156" id="Stroke-81" stroke-width="0.897"></path>
            <path d="M-1.36279876e-14,112.111656 C-1.36279876e-14,112.111656 107.121,98.1506556 218.136,112.111656 C329.15,126.071656 434.351,112.111656 434.351,112.111656" id="Stroke-83" stroke-width="0.907"></path>
            <path d="M-1.36279876e-14,114.715156 C-1.36279876e-14,114.715156 107.134,100.708156 218.202,114.715156 C329.27,128.721156 434.351,114.715156 434.351,114.715156" id="Stroke-85" stroke-width="0.917"></path>
            <path d="M-1.36279876e-14,117.318756 C-1.36279876e-14,117.318756 107.147,103.265756 218.268,117.318756 C329.389,131.370756 434.351,117.318756 434.351,117.318756" id="Stroke-87" stroke-width="0.927"></path>
            <path d="M-1.36279876e-14,119.922256 C-1.36279876e-14,119.922256 107.16,105.823256 218.334,119.922256 C329.508,134.020256 434.351,119.922256 434.351,119.922256" id="Stroke-89" stroke-width="0.937"></path>
            <path d="M-1.36279876e-14,122.525756 C-1.36279876e-14,122.525756 107.173,108.380756 218.4,122.525756 C329.628,136.669756 434.351,122.525756 434.351,122.525756" id="Stroke-91" stroke-width="0.947"></path>
            <path d="M-1.36279876e-14,125.129256 C-1.36279876e-14,125.129256 107.186,110.939256 218.467,125.129256 C329.747,139.318256 434.351,125.129256 434.351,125.129256" id="Stroke-93" stroke-width="0.957"></path>
            <path d="M-1.36279876e-14,127.732756 C-1.36279876e-14,127.732756 107.199,113.496756 218.533,127.732756 C329.867,141.967756 434.351,127.732756 434.351,127.732756" id="Stroke-95" stroke-width="0.967"></path>
            <path d="M-1.36279876e-14,130.336256 C-1.36279876e-14,130.336256 107.212,116.054256 218.599,130.336256 C329.986,144.617256 434.351,130.336256 434.351,130.336256" id="Stroke-97" stroke-width="0.977"></path>
            <path d="M-1.36279876e-14,132.939856 C-1.36279876e-14,132.939856 107.226,118.611856 218.666,132.939856 C330.105,147.266856 434.351,132.939856 434.351,132.939856" id="Stroke-99" stroke-width="0.987"></path>
            <path d="M-1.36279876e-14,135.543356 C-1.36279876e-14,135.543356 107.238,121.169356 218.731,135.543356 C330.225,149.916356 434.351,135.543356 434.351,135.543356" id="Stroke-101" stroke-width="0.997"></path>
            <path d="M-1.36279876e-14,138.146856 C-1.36279876e-14,138.146856 107.251,123.726856 218.798,138.146856 C330.344,152.566856 434.351,138.146856 434.351,138.146856" id="Stroke-103" stroke-width="1.007"></path>
            <path d="M-1.36279876e-14,140.750356 C-1.36279876e-14,140.750356 107.265,126.284356 218.864,140.750356 C330.463,155.216356 434.351,140.750356 434.351,140.750356" id="Stroke-105" stroke-width="1.017"></path>
            <path d="M-1.36279876e-14,143.353856 C-1.36279876e-14,143.353856 107.277,128.841856 218.93,143.353856 C330.583,157.865856 434.351,143.353856 434.351,143.353856" id="Stroke-107" stroke-width="1.026"></path>
            <path d="M-1.36279876e-14,145.957356 C-1.36279876e-14,145.957356 107.291,131.399356 218.996,145.957356 C330.702,160.515356 434.351,145.957356 434.351,145.957356" id="Stroke-109" stroke-width="1.036"></path>
            <path d="M-1.36279876e-14,148.560856 C-1.36279876e-14,148.560856 107.304,133.956856 219.062,148.560856 C330.821,163.164856 434.351,148.560856 434.351,148.560856" id="Stroke-111" stroke-width="1.046"></path>
            <path d="M-1.36279876e-14,151.164456 C-1.36279876e-14,151.164456 107.316,136.515456 219.129,151.164456 C330.941,165.813456 434.351,151.164456 434.351,151.164456" id="Stroke-113" stroke-width="1.056"></path>
            <path d="M-1.36279876e-14,153.767956 C-1.36279876e-14,153.767956 107.33,139.072956 219.195,153.767956 C331.06,168.462956 434.351,153.767956 434.351,153.767956" id="Stroke-115" stroke-width="1.066"></path>
            <path d="M-1.36279876e-14,156.371456 C-1.36279876e-14,156.371456 107.343,141.630456 219.261,156.371456 C331.18,171.112456 434.351,156.371456 434.351,156.371456" id="Stroke-117" stroke-width="1.076"></path>
            <path d="M-1.36279876e-14,158.974956 C-1.36279876e-14,158.974956 107.355,144.187956 219.327,158.974956 C331.299,173.761956 434.351,158.974956 434.351,158.974956" id="Stroke-119" stroke-width="1.086"></path>
            <path d="M-1.36279876e-14,161.578456 C-1.36279876e-14,161.578456 107.369,146.744456 219.394,161.578456 C331.418,176.411456 434.351,161.578456 434.351,161.578456" id="Stroke-121" stroke-width="1.096"></path>
            <path d="M-1.36279876e-14,164.181956 C-1.36279876e-14,164.181956 107.382,149.301956 219.459,164.181956 C331.538,179.060956 434.351,164.181956 434.351,164.181956" id="Stroke-123" stroke-width="1.106"></path>
            <path d="M-1.36279876e-14,166.785556 C-1.36279876e-14,166.785556 107.395,151.859556 219.526,166.785556 C331.657,181.710556 434.351,166.785556 434.351,166.785556" id="Stroke-125" stroke-width="1.116"></path>
            <path d="M-1.36279876e-14,169.389056 C-1.36279876e-14,169.389056 107.408,154.417056 219.592,169.389056 C331.776,184.360056 434.351,169.389056 434.351,169.389056" id="Stroke-127" stroke-width="1.126"></path>
            <path d="M-1.36279876e-14,171.992556 C-1.36279876e-14,171.992556 107.421,156.974556 219.658,171.992556 C331.896,187.009556 434.351,171.992556 434.351,171.992556" id="Stroke-129" stroke-width="1.136"></path>
            <path d="M-1.36279876e-14,174.596056 C-1.36279876e-14,174.596056 107.434,159.533056 219.725,174.596056 C332.015,189.659056 434.351,174.596056 434.351,174.596056" id="Stroke-131" stroke-width="1.146"></path>
            <path d="M-1.36279876e-14,177.199556 C-1.36279876e-14,177.199556 107.447,162.090556 219.791,177.199556 C332.134,192.307556 434.351,177.199556 434.351,177.199556" id="Stroke-133" stroke-width="1.156"></path>
            <path d="M-1.36279876e-14,179.803056 C-1.36279876e-14,179.803056 107.46,164.648056 219.857,179.803056 C332.254,194.957056 434.351,179.802056 434.351,179.802056" id="Stroke-135" stroke-width="1.166"></path>
            <path d="M-1.36279876e-14,182.406656 C-1.36279876e-14,182.406656 107.473,167.205656 219.923,182.406656 C332.373,197.606656 434.351,182.405656 434.351,182.405656" id="Stroke-137" stroke-width="1.175"></path>
            <path d="M-1.36279876e-14,185.010156 C-1.36279876e-14,185.010156 107.486,169.763156 219.989,185.010156 C332.493,200.256156 434.351,185.009156 434.351,185.009156" id="Stroke-139" stroke-width="1.185"></path>
            <path d="M-1.36279876e-14,187.613656 C-1.36279876e-14,187.613656 107.499,172.320656 220.055,187.613656 C332.612,202.905656 434.351,187.612656 434.351,187.612656" id="Stroke-141" stroke-width="1.195"></path>
            <path d="M-1.36279876e-14,190.217156 C-1.36279876e-14,190.217156 107.512,174.878156 220.122,190.217156 C332.731,205.555156 434.351,190.216156 434.351,190.216156" id="Stroke-143" stroke-width="1.205"></path>
            <path d="M-1.36279876e-14,192.820656 C-1.36279876e-14,192.820656 107.525,177.435656 220.188,192.819656 C332.851,208.204656 434.351,192.819656 434.351,192.819656" id="Stroke-145" stroke-width="1.215"></path>
            <path d="M-1.36279876e-14,195.424156 C-1.36279876e-14,195.424156 107.538,179.993156 220.254,195.423156 C332.97,210.854156 434.351,195.423156 434.351,195.423156" id="Stroke-147" stroke-width="1.225"></path>
            <path d="M-1.36279876e-14,198.027656 C-1.36279876e-14,198.027656 107.551,182.550656 220.32,198.026656 C333.089,213.503656 434.351,198.026656 434.351,198.026656" id="Stroke-149" stroke-width="1.235"></path>
            <path d="M-1.36279876e-14,200.631256 C-1.36279876e-14,200.631256 107.564,185.109256 220.386,200.630256 C333.209,216.152256 434.351,200.630256 434.351,200.630256" id="Stroke-151" stroke-width="1.245"></path>
            <path d="M-1.36279876e-14,203.234756 C-1.36279876e-14,203.234756 107.577,187.666756 220.453,203.233756 C333.328,218.801756 434.351,203.233756 434.351,203.233756" id="Stroke-153" stroke-width="1.255"></path>
            <path d="M-1.36279876e-14,205.838256 C-1.36279876e-14,205.838256 107.59,190.224256 220.519,205.837256 C333.448,221.451256 434.351,205.837256 434.351,205.837256" id="Stroke-155" stroke-width="1.265"></path>
            <path d="M-1.36279876e-14,208.440756 C-1.36279876e-14,208.440756 107.603,192.781756 220.585,208.440756 C333.567,224.100756 434.351,208.440756 434.351,208.440756" id="Stroke-157" stroke-width="1.275"></path>
            <path d="M-1.36279876e-14,211.044256 C-1.36279876e-14,211.044256 107.616,195.339256 220.651,211.044256 C333.687,226.750256 434.351,211.044256 434.351,211.044256" id="Stroke-159" stroke-width="1.285"></path>
            <path d="M-1.36279876e-14,213.647856 C-1.36279876e-14,213.647856 107.629,197.896856 220.717,213.647856 C333.806,229.399856 434.351,213.647856 434.351,213.647856" id="Stroke-161" stroke-width="1.295"></path>
            <path d="M-1.36279876e-14,216.251356 C-1.36279876e-14,216.251356 107.642,200.454356 220.784,216.251356 C333.925,232.049356 434.351,216.251356 434.351,216.251356" id="Stroke-163" stroke-width="1.305"></path>
            <path d="M-1.36279876e-14,218.854856 C-1.36279876e-14,218.854856 107.655,203.011856 220.85,218.854856 C334.044,234.698856 434.351,218.854856 434.351,218.854856" id="Stroke-165" stroke-width="1.315"></path>
            <path d="M-1.36279876e-14,221.458356 C-1.36279876e-14,221.458356 107.668,205.569356 220.916,221.458356 C334.164,237.348356 434.351,221.458356 434.351,221.458356" id="Stroke-167" stroke-width="1.325"></path>
            <path d="M-1.36279876e-14,224.061856 C-1.36279876e-14,224.061856 107.681,208.126856 220.982,224.061856 C334.283,239.997856 434.351,224.061856 434.351,224.061856" id="Stroke-169" stroke-width="1.334"></path>
            <path d="M-1.36279876e-14,226.665356 C-1.36279876e-14,226.665356 107.694,210.685356 221.048,226.665356 C334.402,242.646356 434.351,226.665356 434.351,226.665356" id="Stroke-171" stroke-width="1.344"></path>
            <path d="M-1.36279876e-14,229.268956 C-1.36279876e-14,229.268956 107.707,213.242956 221.115,229.268956 C334.522,245.295956 434.351,229.268956 434.351,229.268956" id="Stroke-173" stroke-width="1.354"></path>
            <path d="M-1.36279876e-14,231.872456 C-1.36279876e-14,231.872456 107.72,215.800456 221.181,231.872456 C334.641,247.945456 434.351,231.872456 434.351,231.872456" id="Stroke-175" stroke-width="1.364"></path>
            <path d="M-1.36279876e-14,234.475956 C-1.36279876e-14,234.475956 107.733,218.357956 221.247,234.475956 C334.761,250.594956 434.351,234.475956 434.351,234.475956" id="Stroke-177" stroke-width="1.374"></path>
            <path d="M-1.36279876e-14,237.079456 C-1.36279876e-14,237.079456 107.746,220.914456 221.313,237.079456 C334.88,253.244456 434.351,237.079456 434.351,237.079456" id="Stroke-179" stroke-width="1.384"></path>
            <path d="M-1.36279876e-14,239.682956 C-1.36279876e-14,239.682956 107.759,223.471956 221.379,239.682956 C335,255.893956 434.351,239.682956 434.351,239.682956" id="Stroke-181" stroke-width="1.394"></path>
            <path d="M-1.36279876e-14,242.286456 C-1.36279876e-14,242.286456 107.772,226.029456 221.445,242.286456 C335.119,258.543456 434.351,242.286456 434.351,242.286456" id="Stroke-183" stroke-width="1.404"></path>
            <path d="M-1.36279876e-14,244.889956 C-1.36279876e-14,244.889956 107.785,228.586956 221.512,244.889956 C335.238,261.192956 434.351,244.889956 434.351,244.889956" id="Stroke-185" stroke-width="1.414"></path>
            <path d="M-1.36279876e-14,247.493556 C-1.36279876e-14,247.493556 107.798,231.144556 221.578,247.493556 C335.357,263.842556 434.351,247.493556 434.351,247.493556" id="Stroke-187" stroke-width="1.424"></path>
            <path d="M-1.36279876e-14,250.097056 C-1.36279876e-14,250.097056 107.812,233.702056 221.644,250.097056 C335.477,266.492056 434.351,250.097056 434.351,250.097056" id="Stroke-189" stroke-width="1.434"></path>
            <path d="M-1.36279876e-14,252.700556 C-1.36279876e-14,252.700556 107.824,236.260556 221.71,252.700556 C335.596,269.140556 434.351,252.700556 434.351,252.700556" id="Stroke-191" stroke-width="1.444"></path>
            <path d="M-1.36279876e-14,255.304056 C-1.36279876e-14,255.304056 107.837,238.818056 221.776,255.304056 C335.715,271.790056 434.351,255.304056 434.351,255.304056" id="Stroke-193" stroke-width="1.454"></path>
            <path d="M-1.36279876e-14,257.907556 C-1.36279876e-14,257.907556 107.851,241.375556 221.843,257.907556 C335.835,274.439556 434.351,257.907556 434.351,257.907556" id="Stroke-195" stroke-width="1.464"></path>
            <path d="M-1.36279876e-14,260.511056 C-1.36279876e-14,260.511056 107.863,243.933056 221.909,260.511056 C335.954,277.089056 434.351,260.511056 434.351,260.511056" id="Stroke-197" stroke-width="1.474"></path>
            <path d="M-1.36279876e-14,263.114656 C-1.36279876e-14,263.114656 107.876,246.490656 221.975,263.114656 C336.074,279.738656 434.351,263.114656 434.351,263.114656" id="Stroke-199" stroke-width="1.483"></path>
            <path d="M-1.36279876e-14,265.718156 C-1.36279876e-14,265.718156 107.89,249.048156 222.042,265.718156 C336.193,282.389156 434.351,265.718156 434.351,265.718156" id="Stroke-201" stroke-width="1.493"></path>
            <path d="M-1.36279876e-14,268.321656 C-1.36279876e-14,268.321656 107.903,251.605656 222.107,268.321656 C336.312,285.038656 434.351,268.321656 434.351,268.321656" id="Stroke-203" stroke-width="1.503"></path>
            <path d="M-1.36279876e-14,270.925156 C-1.36279876e-14,270.925156 107.916,254.163156 222.174,270.925156 C336.432,287.688156 434.351,270.925156 434.351,270.925156" id="Stroke-205" stroke-width="1.513"></path>
            <path d="M-1.36279876e-14,273.528656 C-1.36279876e-14,273.528656 107.929,256.720656 222.24,273.528656 C336.551,290.337656 434.351,273.528656 434.351,273.528656" id="Stroke-207" stroke-width="1.523"></path>
            <path d="M-1.36279876e-14,276.132156 C-1.36279876e-14,276.132156 107.942,259.278156 222.306,276.132156 C336.67,292.986156 434.351,276.132156 434.351,276.132156" id="Stroke-209" stroke-width="1.533"></path>
            <path d="M-1.36279876e-14,278.735756 C-1.36279876e-14,278.735756 107.955,261.836756 222.372,278.735756 C336.79,295.635756 434.351,278.735756 434.351,278.735756" id="Stroke-211" stroke-width="1.543"></path>
            <path d="M-1.36279876e-14,281.339256 C-1.36279876e-14,281.339256 107.968,264.394256 222.438,281.339256 C336.909,298.285256 434.351,281.339256 434.351,281.339256" id="Stroke-213" stroke-width="1.553"></path>
            <path d="M-1.36279876e-14,283.942756 C-1.36279876e-14,283.942756 107.981,266.951756 222.505,283.942756 C337.028,300.934756 434.351,283.942756 434.351,283.942756" id="Stroke-215" stroke-width="1.563"></path>
            <path d="M-1.36279876e-14,286.546256 C-1.36279876e-14,286.546256 107.994,269.509256 222.571,286.546256 C337.148,303.584256 434.351,286.546256 434.351,286.546256" id="Stroke-217" stroke-width="1.573"></path>
            <path d="M-1.36279876e-14,289.149756 C-1.36279876e-14,289.149756 108.007,272.066756 222.637,289.149756 C337.267,306.233756 434.351,289.149756 434.351,289.149756" id="Stroke-219" stroke-width="1.583"></path>
            <path d="M-1.36279876e-14,291.753256 C-1.36279876e-14,291.753256 108.02,274.624256 222.703,291.753256 C337.387,308.883256 434.351,291.753256 434.351,291.753256" id="Stroke-221" stroke-width="1.593"></path>
            <path d="M-1.36279876e-14,294.356756 C-1.36279876e-14,294.356756 108.033,277.181756 222.77,294.356756 C337.506,311.532756 434.351,294.356756 434.351,294.356756" id="Stroke-223" stroke-width="1.603"></path>
            <path d="M-1.36279876e-14,296.960356 C-1.36279876e-14,296.960356 108.046,279.739356 222.835,296.960356 C337.625,314.182356 434.351,296.960356 434.351,296.960356" id="Stroke-225" stroke-width="1.613"></path>
            <path d="M-1.36279876e-14,299.563856 C-1.36279876e-14,299.563856 108.059,282.296856 222.902,299.563856 C337.745,316.831856 434.351,299.563856 434.351,299.563856" id="Stroke-227" stroke-width="1.623"></path>
            <path d="M-1.36279876e-14,302.167356 C-1.36279876e-14,302.167356 108.072,284.855356 222.968,302.167356 C337.864,319.480356 434.351,302.167356 434.351,302.167356" id="Stroke-229" stroke-width="1.632"></path>
            <path d="M-1.36279876e-14,304.770856 C-1.36279876e-14,304.770856 108.085,287.412856 223.034,304.770856 C337.983,322.129856 434.351,304.770856 434.351,304.770856" id="Stroke-231" stroke-width="1.642"></path>
            <path d="M-1.36279876e-14,307.374356 C-1.36279876e-14,307.374356 108.098,289.970356 223.101,307.374356 C338.103,324.779356 434.351,307.374356 434.351,307.374356" id="Stroke-233" stroke-width="1.652"></path>
            <path d="M-1.36279876e-14,309.977856 C-1.36279876e-14,309.977856 108.111,292.526856 223.167,309.977856 C338.222,327.428856 434.351,309.977856 434.351,309.977856" id="Stroke-235" stroke-width="1.662"></path>
            <path d="M-1.36279876e-14,312.581456 C-1.36279876e-14,312.581456 108.124,295.084456 223.233,312.581456 C338.342,330.078456 434.351,312.581456 434.351,312.581456" id="Stroke-237" stroke-width="1.672"></path>
            <path d="M-1.36279876e-14,315.184956 C-1.36279876e-14,315.184956 108.137,297.641956 223.299,315.184956 C338.461,332.727956 434.351,315.184956 434.351,315.184956" id="Stroke-239" stroke-width="1.682"></path>
            <path d="M-1.36279876e-14,317.788456 C-1.36279876e-14,317.788456 108.15,300.199456 223.365,317.788456 C338.581,335.377456 434.351,317.788456 434.351,317.788456" id="Stroke-241" stroke-width="1.692"></path>
            <path d="M-1.36279876e-14,320.391956 C-1.36279876e-14,320.391956 108.163,302.756956 223.431,320.391956 C338.7,338.026956 434.351,320.391956 434.351,320.391956" id="Stroke-243" stroke-width="1.702"></path>
            <path d="M-1.36279876e-14,322.995456 C-1.36279876e-14,322.995456 108.176,305.314456 223.498,322.995456 C338.819,340.676456 434.351,322.995456 434.351,322.995456" id="Stroke-245" stroke-width="1.712"></path>
            <path d="M-1.36279876e-14,325.598956 C-1.36279876e-14,325.598956 108.189,307.871956 223.564,325.598956 C338.938,343.325956 434.351,325.598956 434.351,325.598956" id="Stroke-247" stroke-width="1.722"></path>
            <path d="M-1.36279876e-14,328.202456 C-1.36279876e-14,328.202456 108.202,310.430456 223.63,328.202456 C339.058,345.974456 434.351,328.202456 434.351,328.202456" id="Stroke-249" stroke-width="1.732"></path>
            <path d="M-1.36279876e-14,330.806056 C-1.36279876e-14,330.806056 108.215,312.988056 223.696,330.806056 C339.177,348.624056 434.351,330.806056 434.351,330.806056" id="Stroke-251" stroke-width="1.742"></path>
            <path d="M-1.36279876e-14,333.409556 C-1.36279876e-14,333.409556 108.228,315.545556 223.762,333.409556 C339.296,351.273556 434.351,333.409556 434.351,333.409556" id="Stroke-253" stroke-width="1.752"></path>
            <path d="M-1.36279876e-14,336.013056 C-1.36279876e-14,336.013056 108.241,318.103056 223.829,336.013056 C339.416,353.923056 434.351,336.013056 434.351,336.013056" id="Stroke-255" stroke-width="1.762"></path>
            <path d="M-1.36279876e-14,338.616556 C-1.36279876e-14,338.616556 108.254,320.660556 223.895,338.616556 C339.535,356.572556 434.351,338.616556 434.351,338.616556" id="Stroke-257" stroke-width="1.772"></path>
            <path d="M-1.36279876e-14,341.220056 C-1.36279876e-14,341.220056 108.267,323.218056 223.961,341.220056 C339.655,359.222056 434.351,341.220056 434.351,341.220056" id="Stroke-259" stroke-width="1.781"></path>
            <path d="M-1.36279876e-14,343.823556 C-1.36279876e-14,343.823556 108.28,325.775556 224.027,343.823556 C339.774,361.871556 434.351,343.823556 434.351,343.823556" id="Stroke-261" stroke-width="1.791"></path>
            <path d="M-1.36279876e-14,346.427156 C-1.36279876e-14,346.427156 108.293,328.333156 224.093,346.427156 C339.894,364.521156 434.351,346.427156 434.351,346.427156" id="Stroke-263" stroke-width="1.801"></path>
            <path d="M-1.36279876e-14,349.030656 C-1.36279876e-14,349.030656 108.306,330.890656 224.16,349.030656 C340.013,367.170656 434.351,349.030656 434.351,349.030656" id="Stroke-265" stroke-width="1.811"></path>
            <path d="M-1.36279876e-14,351.634156 C-1.36279876e-14,351.634156 108.319,333.448156 224.226,351.634156 C340.132,369.820156 434.351,351.634156 434.351,351.634156" id="Stroke-267" stroke-width="1.821"></path>
            <path d="M-1.36279876e-14,354.237656 C-1.36279876e-14,354.237656 108.333,336.006656 224.292,354.237656 C340.251,372.468656 434.351,354.237656 434.351,354.237656" id="Stroke-269" stroke-width="1.831"></path>
            <path d="M-1.36279876e-14,356.841156 C-1.36279876e-14,356.841156 108.345,338.564156 224.358,356.841156 C340.371,375.118156 434.351,356.841156 434.351,356.841156" id="Stroke-271" stroke-width="1.841"></path>
            <path d="M-1.36279876e-14,359.444656 C-1.36279876e-14,359.444656 108.358,341.121656 224.424,359.444656 C340.49,377.767656 434.351,359.444656 434.351,359.444656" id="Stroke-273" stroke-width="1.851"></path>
            <path d="M-1.36279876e-14,362.048256 C-1.36279876e-14,362.048256 108.372,343.679256 224.491,362.048256 C340.609,380.417256 434.351,362.048256 434.351,362.048256" id="Stroke-275" stroke-width="1.861"></path>
            <path d="M-1.36279876e-14,364.651756 C-1.36279876e-14,364.651756 108.384,346.236756 224.557,364.651756 C340.729,383.066756 434.351,364.651756 434.351,364.651756" id="Stroke-277" stroke-width="1.871"></path>
            <path d="M-1.36279876e-14,367.255256 C-1.36279876e-14,367.255256 108.397,348.794256 224.623,367.255256 C340.848,385.716256 434.351,367.255256 434.351,367.255256" id="Stroke-279" stroke-width="1.881"></path>
            <path d="M-1.36279876e-14,369.858756 C-1.36279876e-14,369.858756 108.411,351.351756 224.689,369.858756 C340.968,388.365756 434.351,369.858756 434.351,369.858756" id="Stroke-281" stroke-width="1.891"></path>
            <path d="M-1.36279876e-14,372.462256 C-1.36279876e-14,372.462256 108.423,353.909256 224.755,372.462256 C341.087,391.015256 434.351,372.462256 434.351,372.462256" id="Stroke-283" stroke-width="1.901"></path>
            <path d="M-1.36279876e-14,375.065756 C-1.36279876e-14,375.065756 108.437,356.466756 224.821,375.065756 C341.207,393.664756 434.351,375.065756 434.351,375.065756" id="Stroke-285" stroke-width="1.911"></path>
            <path d="M-1.36279876e-14,377.669256 C-1.36279876e-14,377.669256 108.45,359.024256 224.888,377.669256 C341.326,396.314256 434.351,377.669256 434.351,377.669256" id="Stroke-287" stroke-width="1.921"></path>
            <path d="M-1.36279876e-14,380.272856 C-1.36279876e-14,380.272856 108.462,361.582856 224.954,380.272856 C341.445,398.962856 434.351,380.272856 434.351,380.272856" id="Stroke-289" stroke-width="1.93"></path>
            <path d="M-1.36279876e-14,382.876356 C-1.36279876e-14,382.876356 108.476,364.140356 225.02,382.876356 C341.564,401.612356 434.351,382.876356 434.351,382.876356" id="Stroke-291" stroke-width="1.94"></path>
            <path d="M-1.36279876e-14,385.479856 C-1.36279876e-14,385.479856 108.489,366.696856 225.086,385.479856 C341.684,404.261856 434.351,385.479856 434.351,385.479856" id="Stroke-293" stroke-width="1.95"></path>
            <path d="M-1.36279876e-14,388.083356 C-1.36279876e-14,388.083356 108.501,369.254356 225.152,388.083356 C341.803,406.911356 434.351,388.083356 434.351,388.083356" id="Stroke-295" stroke-width="1.96"></path>
            <path d="M-1.36279876e-14,390.686856 C-1.36279876e-14,390.686856 108.515,371.811856 225.219,390.686856 C341.923,409.560856 434.351,390.686856 434.351,390.686856" id="Stroke-297" stroke-width="1.97"></path>
            <path d="M-1.36279876e-14,393.290356 C-1.36279876e-14,393.290356 108.528,374.369356 225.285,393.290356 C342.042,412.210356 434.351,393.290356 434.351,393.290356" id="Stroke-299" stroke-width="1.98"></path>
            <path d="M-1.36279876e-14,395.893956 C-1.36279876e-14,395.893956 108.541,376.926956 225.351,395.893956 C342.161,414.860956 434.351,395.893956 434.351,395.893956" id="Stroke-301" stroke-width="1.99"></path>
            <path d="M-1.36279876e-14,398.497456 C-1.36279876e-14,398.497456 108.554,379.484456 225.417,398.497456 C342.281,417.510456 434.351,398.497456 434.351,398.497456" id="Stroke-303" stroke-width="2"></path>
        </g>
    </g>
</svg>